<svg xmlns="http://www.w3.org/2000/svg" xmlns:xlink="http://www.w3.org/1999/xlink" aria-hidden="true" focusable="false" width="45" height="45" style="vertical-align: -0.125em;-ms-transform: rotate(360deg); -webkit-transform: rotate(360deg); transform: rotate(360deg);" preserveAspectRatio="xMidYMid meet" viewBox="0 0 24 24"><path d="M7.5 2a2 2 0 0 1 2 2a2 2 0 0 1-2 2a2 2 0 0 1-2-2a2 2 0 0 1 2-2M6 7h3a2 2 0 0 1 2 2v5.5H9.5V22h-4v-7.5H4V9a2 2 0 0 1 2-2" fill="#F24236"/><path d="M14.5 12a2 2 0 0 1 2-2a2 2 0 0 1 2 2a2 2 0 0 1-2 2a2 2 0 0 1-2-2m-1 3h6v4H18v3h-3v-3h-1.5v-4z" fill="#306B34"/></svg>